<svg xmlns="http://www.w3.org/2000/svg" viewBox="0 0 24 24" fill="none" stroke="currentColor" stroke-width="1.9" stroke-linecap="round" stroke-linejoin="round">
  <path d="M18.5 5.5c-1.4-1.6-3.4-2.5-5.9-2.5-3.7 0-6.1 1.9-6.1 4.8 0 2.7 2.2 3.9 5.5 4.6 3 .6 5 1.4 5 3.4 0 1.8-1.7 3.2-4.7 3.2-2.5 0-4.7-.9-6.3-2.6"/>
  <path d="M5.2 5.4H3.3"/>
  <path d="M20.7 18.6h-1.9"/>
  <path d="M18.8 5.6h1.3"/>
  <path d="M3.9 18.4h1.3"/>
  <circle cx="2.6" cy="5.4" r="1.1" fill="currentColor" stroke="none"/>
  <circle cx="21.4" cy="18.6" r="1.1" fill="currentColor" stroke="none"/>
  <circle cx="21.4" cy="5.6" r="1" fill="currentColor" stroke="none"/>
  <circle cx="2.6" cy="18.4" r="1" fill="currentColor" stroke="none"/>
</svg>
