<svg xmlns="http://www.w3.org/2000/svg" viewBox="0 0 512 512" width="512" height="512">
  <defs>
    <linearGradient id="bg" x1="0" y1="0" x2="1" y2="1">
      <stop offset="0" stop-color="#2a6fb0"/>
      <stop offset="1" stop-color="#1a4a7a"/>
    </linearGradient>
  </defs>
  <rect width="512" height="512" rx="112" fill="url(#bg)"/>
  <g transform="translate(96,96) scale(13.33)" fill="none" stroke="#ffffff" stroke-width="1.7" stroke-linecap="round" stroke-linejoin="round">
    <path d="M18.5 5.5c-1.4-1.6-3.4-2.5-5.9-2.5-3.7 0-6.1 1.9-6.1 4.8 0 2.7 2.2 3.9 5.5 4.6 3 .6 5 1.4 5 3.4 0 1.8-1.7 3.2-4.7 3.2-2.5 0-4.7-.9-6.3-2.6"/>
    <path d="M5.2 5.4H3.3"/>
    <path d="M20.7 18.6h-1.9"/>
    <circle cx="2.6" cy="5.4" r="1.1" fill="#ffffff" stroke="none"/>
    <circle cx="21.4" cy="18.6" r="1.1" fill="#ffffff" stroke="none"/>
  </g>
</svg>
